<?xml version="1.0" encoding="UTF-8"?>
<!DOCTYPE svg PUBLIC "-//W3C//DTD SVG 1.1//EN" "http://www.w3.org/Graphics/SVG/1.1/DTD/svg11.dtd">
<svg xmlns="http://www.w3.org/2000/svg" version="1.1" width="3840px" height="2160px" style="shape-rendering:geometricPrecision; text-rendering:geometricPrecision; image-rendering:optimizeQuality; fill-rule:evenodd; clip-rule:evenodd" xmlns:xlink="http://www.w3.org/1999/xlink">
<g><path style="opacity:0.995" fill="#000000" d="M 2126.5,8.5 C 2179.89,4.94345 2220.72,25.6101 2249,70.5C 2269.94,111.67 2269.61,152.67 2248,193.5C 2221.56,234.527 2183.72,255.027 2134.5,255C 2130.79,256.691 2129.62,259.525 2131,263.5C 2136.08,269.724 2138.58,276.89 2138.5,285C 2135.91,299.539 2133.07,314.039 2130,328.5C 2126.67,357.954 2123.84,387.454 2121.5,417C 2122.67,423.846 2124,430.679 2125.5,437.5C 2123.57,459.285 2120.74,480.952 2117,502.5C 2115.55,516.42 2109.21,527.42 2098,535.5C 2093.18,559.609 2087.84,583.609 2082,607.5C 2077.45,621.812 2072.12,635.812 2066,649.5C 2064.77,663.212 2063.11,676.879 2061,690.5C 2059.43,697.764 2057.1,704.764 2054,711.5C 2056.02,746.375 2050.69,780.041 2038,812.5C 2032.94,825.614 2027.61,838.614 2022,851.5C 2017.6,868.641 2016.6,885.975 2019,903.5C 2023.19,930.936 2030.19,957.603 2040,983.5C 2048.07,997.247 2055.73,1011.25 2063,1025.5C 2067.23,1035.08 2069.9,1045.08 2071,1055.5C 2076,1101.68 2077.33,1147.68 2075,1193.5C 2072.46,1228.88 2066.63,1263.72 2057.5,1298C 2063.13,1312.57 2068.97,1327.07 2075,1341.5C 2092.75,1349.2 2108.41,1359.87 2122,1373.5C 2135.05,1390.35 2135.88,1407.85 2124.5,1426C 2124.83,1426.5 2125.17,1427 2125.5,1427.5C 2153.83,1441.33 2182.17,1455.17 2210.5,1469C 2234.69,1481.92 2257.69,1496.59 2279.5,1513C 2296.8,1527.29 2313.8,1541.96 2330.5,1557C 2339.2,1565.36 2347.53,1574.03 2355.5,1583C 2364.52,1584.87 2373.52,1586.87 2382.5,1589C 2387.4,1590.45 2392.07,1592.45 2396.5,1595C 2514.49,1669.19 2625.49,1752.85 2729.5,1846C 2739.37,1852.7 2749.37,1859.2 2759.5,1865.5C 2760.89,1867.11 2761.89,1868.94 2762.5,1871C 2760.46,1876.95 2758.13,1882.79 2755.5,1888.5C 2760.37,1893.53 2765.7,1898.03 2771.5,1902C 2776.06,1902.54 2780.39,1901.71 2784.5,1899.5C 2791.63,1906.23 2799.63,1911.73 2808.5,1916C 2814.02,1916.16 2819.35,1915.16 2824.5,1913C 2828.61,1908.8 2832.94,1904.8 2837.5,1901C 2840.59,1900.93 2843.59,1901.26 2846.5,1902C 2855.04,1892.08 2865.04,1884.08 2876.5,1878C 2885.61,1874.98 2894.95,1873.65 2904.5,1874C 2907.96,1876.87 2908.29,1880.03 2905.5,1883.5C 2895.6,1887.12 2885.93,1891.28 2876.5,1896C 2863.67,1909.5 2852.67,1924.33 2843.5,1940.5C 2856.44,1940.48 2869.44,1940.65 2882.5,1941C 2908.55,1944.44 2934.55,1944.11 2960.5,1940C 2973.03,1935.74 2984.36,1929.4 2994.5,1921C 3000.68,1917.41 3007.01,1914.08 3013.5,1911C 3034.99,1903.83 3052.49,1909.33 3066,1927.5C 3066.75,1930.3 3066.42,1932.97 3065,1935.5C 3051.86,1949.64 3038.36,1963.47 3024.5,1977C 3007.76,1993.08 2990.43,2008.41 2972.5,2023C 2960.78,2031.72 2948.78,2040.06 2936.5,2048C 2911.88,2060.64 2888.88,2075.64 2867.5,2093C 2857.06,2103.37 2846.06,2113.04 2834.5,2122C 2828.5,2125.67 2822.5,2129.33 2816.5,2133C 2810.34,2134.67 2805.51,2132.84 2802,2127.5C 2789.72,2109.27 2780.39,2089.6 2774,2068.5C 2756.33,2054.84 2742.33,2038.17 2732,2018.5C 2715.87,2007.37 2702.04,1993.87 2690.5,1978C 2681.33,1970.83 2672.17,1963.67 2663,1956.5C 2652.11,1959.14 2641.61,1957.64 2631.5,1952C 2600.88,1929.72 2570.55,1907.05 2540.5,1884C 2528.8,1881.99 2517.8,1877.99 2507.5,1872C 2471.5,1844.67 2435.5,1817.33 2399.5,1790C 2383.5,1778.67 2367.5,1767.33 2351.5,1756C 2336.83,1748.67 2322.17,1741.33 2307.5,1734C 2304.5,1731.67 2301.5,1729.33 2298.5,1727C 2280.86,1724.27 2263.53,1720.27 2246.5,1715C 2208.07,1710.65 2171.07,1700.98 2135.5,1686C 2120.38,1679.27 2105.38,1672.27 2090.5,1665C 2057.85,1652.78 2025.51,1639.78 1993.5,1626C 1972.95,1619.58 1952.29,1613.58 1931.5,1608C 1911.81,1601.49 1893.14,1592.82 1875.5,1582C 1866.5,1579.74 1857.84,1580.74 1849.5,1585C 1828.66,1595.92 1807.66,1606.59 1786.5,1617C 1748.33,1638.59 1709.99,1659.92 1671.5,1681C 1644.38,1693.73 1617.38,1706.73 1590.5,1720C 1571.16,1729.11 1551.49,1737.45 1531.5,1745C 1464.15,1798.37 1391.48,1843.7 1313.5,1881C 1276.22,1908.62 1239.22,1936.62 1202.5,1965C 1199.5,1968 1196.5,1971 1193.5,1974C 1191.1,1975.7 1188.43,1976.53 1185.5,1976.5C 1179.41,1975.75 1173.57,1974.08 1168,1971.5C 1159.9,1976.6 1152.07,1982.1 1144.5,1988C 1138.67,1992.04 1132.34,1993.71 1125.5,1993C 1121.33,1996.5 1116.66,1999.17 1111.5,2001C 1108.67,2003.17 1105.83,2005.33 1103,2007.5C 1100.63,2011.75 1098.13,2015.92 1095.5,2020C 1092.17,2021.33 1088.83,2022.67 1085.5,2024C 1083.04,2026.45 1080.71,2028.95 1078.5,2031.5C 1073.08,2040 1067.91,2048.67 1063,2057.5C 1056.55,2064.98 1048.38,2069.14 1038.5,2070C 1031.78,2076.05 1026.62,2083.22 1023,2091.5C 1020.87,2093.48 1018.37,2094.82 1015.5,2095.5C 1007.19,2116.32 991.852,2127.32 969.5,2128.5C 960.671,2127.96 952.005,2126.46 943.5,2124C 931.682,2122.43 920.349,2124.1 909.5,2129C 901.081,2133.88 892.414,2138.21 883.5,2142C 859.91,2147.02 838.577,2142.35 819.5,2128C 802.699,2112.52 789.199,2094.68 779,2074.5C 776.765,2062.87 780.265,2053.37 789.5,2046C 797.149,2039.84 805.149,2034.18 813.5,2029C 825.226,2026.9 836.893,2024.57 848.5,2022C 856.46,2021.47 864.126,2020.8 871.5,2020C 888.021,2013.99 904.688,2008.49 921.5,2003.5C 922.894,2003.62 924.228,2003.95 925.5,2004.5C 934.289,2000.61 942.955,1996.44 951.5,1992C 951.101,1986.9 951.601,1981.73 953,1976.5C 958.066,1971.06 963.899,1966.73 970.5,1963.5C 973.545,1964.44 976.379,1965.77 979,1967.5C 980.833,1967 982,1965.83 982.5,1964C 981.09,1959.01 979.256,1954.18 977,1949.5C 975.908,1943.22 975.242,1936.88 975,1930.5C 972.134,1924.4 969.967,1918.07 968.5,1911.5C 969.423,1906.48 971.756,1902.32 975.5,1899C 977.5,1898.33 979.5,1898.33 981.5,1899C 985.131,1903.21 987.631,1908.04 989,1913.5C 990.346,1921.24 992.012,1928.91 994,1936.5C 998.461,1946.02 1004.46,1947.02 1012,1939.5C 1015.45,1930.75 1020.29,1922.91 1026.5,1916C 1030.07,1914.6 1033.74,1914.26 1037.5,1915C 1041.47,1917.96 1045.13,1921.3 1048.5,1925C 1049.17,1925.67 1049.83,1925.67 1050.5,1925C 1055.13,1920.36 1060.13,1916.19 1065.5,1912.5C 1061,1906.93 1060.67,1901.26 1064.5,1895.5C 1068.32,1892.09 1072.32,1888.93 1076.5,1886C 1164.33,1786.42 1269.67,1711.42 1392.5,1661C 1410.73,1636.04 1435.4,1622.21 1466.5,1619.5C 1490.85,1581.07 1519.85,1546.23 1553.5,1515C 1567.5,1503 1581.5,1491 1595.5,1479C 1603.31,1472.59 1611.65,1466.92 1620.5,1462C 1625.36,1450.61 1633.03,1441.61 1643.5,1435C 1651.46,1432.54 1659.46,1430.21 1667.5,1428C 1673.5,1423.33 1679.5,1418.67 1685.5,1414C 1691.86,1407.79 1695.36,1400.29 1696,1391.5C 1696.36,1379.47 1696.19,1367.64 1695.5,1356C 1694.96,1340.3 1697.46,1325.14 1703,1310.5C 1711.23,1296.12 1723.73,1288.46 1740.5,1287.5C 1747.88,1276.28 1756.22,1265.78 1765.5,1256C 1757.1,1235.58 1751.27,1214.42 1748,1192.5C 1739.63,1185.47 1733.63,1176.8 1730,1166.5C 1729.2,1161.25 1729.36,1156.08 1730.5,1151C 1717.1,1134.25 1705.26,1116.42 1695,1097.5C 1688.52,1094.67 1681.85,1094 1675,1095.5C 1671.78,1104.38 1666.62,1111.88 1659.5,1118C 1652.31,1121.95 1644.81,1125.12 1637,1127.5C 1628.05,1148.06 1618.05,1168.06 1607,1187.5C 1593,1209.5 1575.5,1228.33 1554.5,1244C 1539.35,1255.41 1523.69,1266.08 1507.5,1276C 1481.25,1305.67 1464.58,1339.83 1457.5,1378.5C 1458.33,1385.01 1459.33,1391.51 1460.5,1398C 1459.66,1402.7 1458.66,1407.36 1457.5,1412C 1458.72,1417.76 1461.72,1422.42 1466.5,1426C 1472.02,1428.13 1477.69,1429.8 1483.5,1431C 1493.22,1436.95 1493.89,1443.95 1485.5,1452C 1469.7,1456.2 1454.7,1454.2 1440.5,1446C 1436.13,1441.97 1432.13,1437.63 1428.5,1433C 1423.68,1430.4 1418.68,1430.4 1413.5,1433C 1405.53,1440.63 1398.69,1449.13 1393,1458.5C 1385.92,1468.29 1376.42,1473.12 1364.5,1473C 1361.05,1472.29 1359.38,1470.12 1359.5,1466.5C 1359.84,1464.13 1360.34,1461.8 1361,1459.5C 1364.31,1453.71 1367.47,1447.88 1370.5,1442C 1369.87,1441.25 1369.37,1440.42 1369,1439.5C 1350.26,1445.86 1331.42,1452.03 1312.5,1458C 1307.17,1458.67 1301.83,1458.67 1296.5,1458C 1288.01,1455.7 1286.34,1451.04 1291.5,1444C 1303.51,1439.1 1315.18,1433.44 1326.5,1427C 1328.92,1425.49 1329.92,1423.32 1329.5,1420.5C 1317.97,1423.46 1306.31,1425.96 1294.5,1428C 1286.81,1428.89 1279.31,1429.39 1272,1429.5C 1259.51,1427.52 1247.01,1425.36 1234.5,1423C 1229.09,1421.01 1226.59,1417.17 1227,1411.5C 1227.83,1410.67 1228.67,1409.83 1229.5,1409C 1254.52,1407.66 1279.18,1404 1303.5,1398C 1320.27,1390.45 1336.6,1382.12 1352.5,1373C 1357,1367.17 1361.5,1361.33 1366,1355.5C 1378.45,1343.93 1390.45,1331.93 1402,1319.5C 1404.67,1316.17 1407.33,1312.83 1410,1309.5C 1436.26,1243.26 1471.93,1182.93 1517,1128.5C 1522.63,1121.86 1528.63,1115.53 1535,1109.5C 1540.99,1079.88 1554.99,1054.88 1577,1034.5C 1594.71,997.41 1614.71,961.743 1637,927.5C 1649.32,910.917 1665.82,901.417 1686.5,899C 1697.26,891.58 1706.76,882.746 1715,872.5C 1718.69,862.593 1722.85,852.927 1727.5,843.5C 1714.18,832.343 1702.01,820.009 1691,806.5C 1677.67,787.878 1673.01,767.211 1677,744.5C 1685.52,702.308 1709.35,672.141 1748.5,654C 1777.54,643.173 1805.21,645.84 1831.5,662C 1838.5,667.667 1844.83,674 1850.5,681C 1855.21,684.354 1860.21,687.187 1865.5,689.5C 1867.62,692.246 1869.62,695.079 1871.5,698C 1880.47,699.741 1889.13,702.408 1897.5,706C 1899.6,708.042 1900.77,710.542 1901,713.5C 1901.33,718.167 1901.67,722.833 1902,727.5C 1908.49,734.324 1912.82,742.324 1915,751.5C 1918.57,743.347 1922.91,735.68 1928,728.5C 1936.98,719.191 1946.31,710.191 1956,701.5C 1962.6,681.356 1968.6,661.022 1974,640.5C 1979.77,622.517 1985.94,604.684 1992.5,587C 1989.56,573.712 1990.06,560.546 1994,547.5C 2000.56,532.713 2007.39,518.046 2014.5,503.5C 2012.14,498.293 2011.98,492.959 2014,487.5C 2021.08,460.524 2029.08,433.857 2038,407.5C 2040.13,405.516 2042.63,404.182 2045.5,403.5C 2054.54,371.141 2062.37,338.474 2069,305.5C 2069.67,299.5 2069.67,293.5 2069,287.5C 2067.27,279.976 2064.94,272.643 2062,265.5C 2061.52,261.469 2060.85,257.469 2060,253.5C 2050.47,235.779 2041.47,217.779 2033,199.5C 2025.85,177.091 2021.02,154.257 2018.5,131C 2021.54,77.5516 2047.21,39.5516 2095.5,17C 2105.74,13.3603 2116.07,10.5269 2126.5,8.5 Z"/></g>
</svg>
