<?xml version="1.0" encoding="UTF-8"?>
<!DOCTYPE svg PUBLIC "-//W3C//DTD SVG 1.1//EN" "http://www.w3.org/Graphics/SVG/1.1/DTD/svg11.dtd">
<svg xmlns="http://www.w3.org/2000/svg" version="1.1" width="4944px" height="1950px" style="shape-rendering:geometricPrecision; text-rendering:geometricPrecision; image-rendering:optimizeQuality; fill-rule:evenodd; clip-rule:evenodd" xmlns:xlink="http://www.w3.org/1999/xlink">
<g><path style="opacity:1" fill="#000000" d="M 835.5,139.5 C 836.043,139.56 836.376,139.893 836.5,140.5C 798.219,214.723 764.052,290.723 734,368.5C 702.958,449.334 681.625,532.668 670,618.5C 660.806,689.973 666.139,760.306 686,829.5C 717.026,919.176 773.526,987.676 855.5,1035C 922.275,1071.48 993.608,1093.48 1069.5,1101C 1146.53,1109.12 1223.2,1106.45 1299.5,1093C 1358.04,1083.2 1416.04,1070.87 1473.5,1056C 1816.83,962.667 2160.17,869.333 2503.5,776C 3263.03,567.866 4022.7,360.2 4782.5,153C 4783.83,152.333 4785.17,152.333 4786.5,153C 3709.17,629 2631.83,1105 1554.5,1581C 1413.85,1648.67 1268.52,1704.33 1118.5,1748C 1009.57,1779.54 898.571,1799.54 785.5,1808C 705.477,1813.53 626.144,1808.53 547.5,1793C 474.361,1777.42 407.028,1748.75 345.5,1707C 254.199,1639.92 196.033,1550.76 171,1439.5C 151.156,1345.25 152.49,1251.25 175,1157.5C 190.213,1095.86 210.213,1035.86 235,977.5C 281.821,869.5 337.154,766.5 401,668.5C 494.312,527.288 597.312,393.288 710,266.5C 750.503,222.804 792.336,180.471 835.5,139.5 Z"/></g>
</svg>
